<?xml version="1.0" encoding="UTF-8" standalone="no"?>
<!DOCTYPE svg PUBLIC "-//W3C//DTD SVG 1.1//EN"
 "http://www.w3.org/Graphics/SVG/1.1/DTD/svg11.dtd">
<!-- Generated by graphviz version 2.40.1 (20161225.0304)
 -->
<!-- Title: %3 Pages: 1 -->
<svg width="1718pt" height="548pt"
 viewBox="0.00 0.00 1717.85 548.00" xmlns="http://www.w3.org/2000/svg" xmlns:xlink="http://www.w3.org/1999/xlink">
<g id="graph0" class="graph" transform="scale(1 1) rotate(0) translate(4 544)">
<title>%3</title>
<polygon fill="#ffffff" stroke="transparent" points="-4,4 -4,-544 1713.8537,-544 1713.8537,4 -4,4"/>
<!-- [root] aws_codebuild_project.default -->
<g id="node1" class="node">
<title>[root] aws_codebuild_project.default</title>
<polygon fill="none" stroke="#000000" points="448.4471,-324 260.0113,-324 260.0113,-288 448.4471,-288 448.4471,-324"/>
<text text-anchor="middle" x="354.2292" y="-301.8" font-family="Times,serif" font-size="14.00" fill="#000000">aws_codebuild_project.default</text>
</g>
<!-- [root] aws_iam_role.build_role -->
<g id="node7" class="node">
<title>[root] aws_iam_role.build_role</title>
<polygon fill="none" stroke="#000000" points="349.8059,-252 194.6524,-252 194.6524,-216 349.8059,-216 349.8059,-252"/>
<text text-anchor="middle" x="272.2292" y="-229.8" font-family="Times,serif" font-size="14.00" fill="#000000">aws_iam_role.build_role</text>
</g>
<!-- [root] aws_codebuild_project.default&#45;&gt;[root] aws_iam_role.build_role -->
<g id="edge1" class="edge">
<title>[root] aws_codebuild_project.default&#45;&gt;[root] aws_iam_role.build_role</title>
<path fill="none" stroke="#000000" d="M333.5371,-287.8314C323.5344,-279.0485 311.3741,-268.3712 300.5292,-258.8489"/>
<polygon fill="#000000" stroke="#000000" points="302.7384,-256.1308 292.9146,-252.1628 298.1197,-261.3909 302.7384,-256.1308"/>
</g>
<!-- [root] aws_codepipeline.default -->
<g id="node2" class="node">
<title>[root] aws_codepipeline.default</title>
<polygon fill="none" stroke="#000000" points="354.3955,-396 196.0628,-396 196.0628,-360 354.3955,-360 354.3955,-396"/>
<text text-anchor="middle" x="275.2292" y="-373.8" font-family="Times,serif" font-size="14.00" fill="#000000">aws_codepipeline.default</text>
</g>
<!-- [root] aws_codepipeline.default&#45;&gt;[root] aws_codebuild_project.default -->
<g id="edge2" class="edge">
<title>[root] aws_codepipeline.default&#45;&gt;[root] aws_codebuild_project.default</title>
<path fill="none" stroke="#000000" d="M295.1642,-359.8314C304.7074,-351.1337 316.289,-340.5783 326.6598,-331.1265"/>
<polygon fill="#000000" stroke="#000000" points="329.2672,-333.4857 334.3005,-324.1628 324.5519,-328.3121 329.2672,-333.4857"/>
</g>
<!-- [root] aws_iam_role.pipeline_role -->
<g id="node8" class="node">
<title>[root] aws_iam_role.pipeline_role</title>
<polygon fill="none" stroke="#000000" points="1151.1228,-324 979.3356,-324 979.3356,-288 1151.1228,-288 1151.1228,-324"/>
<text text-anchor="middle" x="1065.2292" y="-301.8" font-family="Times,serif" font-size="14.00" fill="#000000">aws_iam_role.pipeline_role</text>
</g>
<!-- [root] aws_codepipeline.default&#45;&gt;[root] aws_iam_role.pipeline_role -->
<g id="edge3" class="edge">
<title>[root] aws_codepipeline.default&#45;&gt;[root] aws_iam_role.pipeline_role</title>
<path fill="none" stroke="#000000" d="M354.7721,-361.2267C357.6217,-360.7862 360.4474,-360.375 363.2292,-360 602.9247,-327.6916 665.3333,-345.6093 906.2292,-324 926.5597,-322.1763 948.3181,-319.9166 969.0098,-317.6215"/>
<polygon fill="#000000" stroke="#000000" points="969.5232,-321.0859 979.071,-316.4937 968.7433,-314.1295 969.5232,-321.0859"/>
</g>
<!-- [root] aws_s3_bucket.artifact_store -->
<g id="node13" class="node">
<title>[root] aws_s3_bucket.artifact_store</title>
<polygon fill="none" stroke="#000000" points="794.6159,-180 615.8424,-180 615.8424,-144 794.6159,-144 794.6159,-180"/>
<text text-anchor="middle" x="705.2292" y="-157.8" font-family="Times,serif" font-size="14.00" fill="#000000">aws_s3_bucket.artifact_store</text>
</g>
<!-- [root] aws_codepipeline.default&#45;&gt;[root] aws_s3_bucket.artifact_store -->
<g id="edge4" class="edge">
<title>[root] aws_codepipeline.default&#45;&gt;[root] aws_s3_bucket.artifact_store</title>
<path fill="none" stroke="#000000" d="M195.9052,-372.8928C125.6741,-366.5207 30.7547,-352.7386 7.2292,-324 -2.9058,-311.6193 -1.7152,-301.2664 7.2292,-288 96.3737,-155.7805 514.679,-184.4151 605.6852,-179.5209"/>
<polygon fill="#000000" stroke="#000000" points="606.0434,-183.0032 615.7106,-178.6677 605.4498,-176.0284 606.0434,-183.0032"/>
</g>
<!-- [root] var.github&#45;oauth&#45;token -->
<g id="node21" class="node">
<title>[root] var.github&#45;oauth&#45;token</title>
<ellipse fill="none" stroke="#000000" cx="129.2292" cy="-306" rx="113.0156" ry="18"/>
<text text-anchor="middle" x="129.2292" y="-301.8" font-family="Times,serif" font-size="14.00" fill="#000000">[root] var.github&#45;oauth&#45;token</text>
</g>
<!-- [root] aws_codepipeline.default&#45;&gt;[root] var.github&#45;oauth&#45;token -->
<g id="edge5" class="edge">
<title>[root] aws_codepipeline.default&#45;&gt;[root] var.github&#45;oauth&#45;token</title>
<path fill="none" stroke="#000000" d="M238.3872,-359.8314C218.519,-350.0334 193.8702,-337.8778 173.0253,-327.5981"/>
<polygon fill="#000000" stroke="#000000" points="174.5658,-324.4554 164.0491,-323.1715 171.4697,-330.7335 174.5658,-324.4554"/>
</g>
<!-- [root] aws_iam_policy.build_default -->
<g id="node3" class="node">
<title>[root] aws_iam_policy.build_default</title>
<polygon fill="none" stroke="#000000" points="552.7272,-252 367.7311,-252 367.7311,-216 552.7272,-216 552.7272,-252"/>
<text text-anchor="middle" x="460.2292" y="-229.8" font-family="Times,serif" font-size="14.00" fill="#000000">aws_iam_policy.build_default</text>
</g>
<!-- [root] data.aws_iam_policy_document.build_default -->
<g id="node15" class="node">
<title>[root] data.aws_iam_policy_document.build_default</title>
<polygon fill="none" stroke="#000000" points="597.6608,-180 322.7975,-180 322.7975,-144 597.6608,-144 597.6608,-180"/>
<text text-anchor="middle" x="460.2292" y="-157.8" font-family="Times,serif" font-size="14.00" fill="#000000">data.aws_iam_policy_document.build_default</text>
</g>
<!-- [root] aws_iam_policy.build_default&#45;&gt;[root] data.aws_iam_policy_document.build_default -->
<g id="edge6" class="edge">
<title>[root] aws_iam_policy.build_default&#45;&gt;[root] data.aws_iam_policy_document.build_default</title>
<path fill="none" stroke="#000000" d="M460.2292,-215.8314C460.2292,-208.131 460.2292,-198.9743 460.2292,-190.4166"/>
<polygon fill="#000000" stroke="#000000" points="463.7293,-190.4132 460.2292,-180.4133 456.7293,-190.4133 463.7293,-190.4132"/>
</g>
<!-- [root] var.project&#45;name -->
<g id="node22" class="node">
<title>[root] var.project&#45;name</title>
<ellipse fill="none" stroke="#000000" cx="905.2292" cy="-162" rx="92.2411" ry="18"/>
<text text-anchor="middle" x="905.2292" y="-157.8" font-family="Times,serif" font-size="14.00" fill="#000000">[root] var.project&#45;name</text>
</g>
<!-- [root] aws_iam_policy.build_default&#45;&gt;[root] var.project&#45;name -->
<g id="edge7" class="edge">
<title>[root] aws_iam_policy.build_default&#45;&gt;[root] var.project&#45;name</title>
<path fill="none" stroke="#000000" d="M552.777,-217.5582C555.9653,-217.0268 559.1233,-216.5059 562.2292,-216 669.1198,-198.588 696.3385,-197.412 803.2292,-180 811.1153,-178.7154 819.3366,-177.3345 827.5394,-175.9293"/>
<polygon fill="#000000" stroke="#000000" points="828.2528,-179.358 837.5118,-174.2082 827.0622,-172.46 828.2528,-179.358"/>
</g>
<!-- [root] aws_iam_policy.pipeline_codebuild -->
<g id="node4" class="node">
<title>[root] aws_iam_policy.pipeline_codebuild</title>
<polygon fill="none" stroke="#000000" points="1458.8828,-252 1241.5756,-252 1241.5756,-216 1458.8828,-216 1458.8828,-252"/>
<text text-anchor="middle" x="1350.2292" y="-229.8" font-family="Times,serif" font-size="14.00" fill="#000000">aws_iam_policy.pipeline_codebuild</text>
</g>
<!-- [root] data.aws_iam_policy_document.pipeline_codebuild -->
<g id="node17" class="node">
<title>[root] data.aws_iam_policy_document.pipeline_codebuild</title>
<polygon fill="none" stroke="#000000" points="1399.8164,-180 1092.642,-180 1092.642,-144 1399.8164,-144 1399.8164,-180"/>
<text text-anchor="middle" x="1246.2292" y="-157.8" font-family="Times,serif" font-size="14.00" fill="#000000">data.aws_iam_policy_document.pipeline_codebuild</text>
</g>
<!-- [root] aws_iam_policy.pipeline_codebuild&#45;&gt;[root] data.aws_iam_policy_document.pipeline_codebuild -->
<g id="edge8" class="edge">
<title>[root] aws_iam_policy.pipeline_codebuild&#45;&gt;[root] data.aws_iam_policy_document.pipeline_codebuild</title>
<path fill="none" stroke="#000000" d="M1323.9856,-215.8314C1310.9297,-206.7927 1294.9757,-195.7476 1280.9245,-186.0198"/>
<polygon fill="#000000" stroke="#000000" points="1282.6786,-182.9773 1272.4644,-180.1628 1278.6941,-188.7326 1282.6786,-182.9773"/>
</g>
<!-- [root] aws_iam_policy.pipeline_codebuild&#45;&gt;[root] var.project&#45;name -->
<g id="edge9" class="edge">
<title>[root] aws_iam_policy.pipeline_codebuild&#45;&gt;[root] var.project&#45;name</title>
<path fill="none" stroke="#000000" d="M1241.3699,-216.3868C1162.7684,-203.6693 1058.3028,-186.767 986.8159,-175.2006"/>
<polygon fill="#000000" stroke="#000000" points="986.9456,-171.6761 976.515,-173.5339 985.8275,-178.5862 986.9456,-171.6761"/>
</g>
<!-- [root] aws_iam_policy.pipeline_default -->
<g id="node5" class="node">
<title>[root] aws_iam_policy.pipeline_default</title>
<polygon fill="none" stroke="#000000" points="1678.0448,-252 1476.4135,-252 1476.4135,-216 1678.0448,-216 1678.0448,-252"/>
<text text-anchor="middle" x="1577.2292" y="-229.8" font-family="Times,serif" font-size="14.00" fill="#000000">aws_iam_policy.pipeline_default</text>
</g>
<!-- [root] data.aws_iam_policy_document.pipeline_default -->
<g id="node18" class="node">
<title>[root] data.aws_iam_policy_document.pipeline_default</title>
<polygon fill="none" stroke="#000000" points="1709.9783,-180 1418.48,-180 1418.48,-144 1709.9783,-144 1709.9783,-180"/>
<text text-anchor="middle" x="1564.2292" y="-157.8" font-family="Times,serif" font-size="14.00" fill="#000000">data.aws_iam_policy_document.pipeline_default</text>
</g>
<!-- [root] aws_iam_policy.pipeline_default&#45;&gt;[root] data.aws_iam_policy_document.pipeline_default -->
<g id="edge10" class="edge">
<title>[root] aws_iam_policy.pipeline_default&#45;&gt;[root] data.aws_iam_policy_document.pipeline_default</title>
<path fill="none" stroke="#000000" d="M1573.9487,-215.8314C1572.5584,-208.131 1570.9051,-198.9743 1569.3599,-190.4166"/>
<polygon fill="#000000" stroke="#000000" points="1572.775,-189.6322 1567.5538,-180.4133 1565.8864,-190.8761 1572.775,-189.6322"/>
</g>
<!-- [root] aws_iam_policy.pipeline_default&#45;&gt;[root] var.project&#45;name -->
<g id="edge11" class="edge">
<title>[root] aws_iam_policy.pipeline_default&#45;&gt;[root] var.project&#45;name</title>
<path fill="none" stroke="#000000" d="M1476.3108,-217.0777C1473.59,-216.7041 1470.8922,-216.344 1468.2292,-216 1297.7874,-193.9859 1254.2787,-196.6455 1083.2292,-180 1055.2831,-177.2805 1024.8782,-174.2371 997.2358,-171.4377"/>
<polygon fill="#000000" stroke="#000000" points="997.4885,-167.9455 987.1864,-170.4184 996.7821,-174.9097 997.4885,-167.9455"/>
</g>
<!-- [root] aws_iam_policy.pipeline_s3 -->
<g id="node6" class="node">
<title>[root] aws_iam_policy.pipeline_s3</title>
<polygon fill="none" stroke="#000000" points="897.6237,-324 722.8346,-324 722.8346,-288 897.6237,-288 897.6237,-324"/>
<text text-anchor="middle" x="810.2292" y="-301.8" font-family="Times,serif" font-size="14.00" fill="#000000">aws_iam_policy.pipeline_s3</text>
</g>
<!-- [root] data.aws_iam_policy_document.pipeline_s3 -->
<g id="node19" class="node">
<title>[root] data.aws_iam_policy_document.pipeline_s3</title>
<polygon fill="none" stroke="#000000" points="835.5573,-252 570.901,-252 570.901,-216 835.5573,-216 835.5573,-252"/>
<text text-anchor="middle" x="703.2292" y="-229.8" font-family="Times,serif" font-size="14.00" fill="#000000">data.aws_iam_policy_document.pipeline_s3</text>
</g>
<!-- [root] aws_iam_policy.pipeline_s3&#45;&gt;[root] data.aws_iam_policy_document.pipeline_s3 -->
<g id="edge12" class="edge">
<title>[root] aws_iam_policy.pipeline_s3&#45;&gt;[root] data.aws_iam_policy_document.pipeline_s3</title>
<path fill="none" stroke="#000000" d="M783.2286,-287.8314C769.796,-278.7927 753.3819,-267.7476 738.9253,-258.0198"/>
<polygon fill="#000000" stroke="#000000" points="740.4717,-254.8418 730.2211,-252.1628 736.5638,-260.6494 740.4717,-254.8418"/>
</g>
<!-- [root] aws_iam_policy.pipeline_s3&#45;&gt;[root] var.project&#45;name -->
<g id="edge13" class="edge">
<title>[root] aws_iam_policy.pipeline_s3&#45;&gt;[root] var.project&#45;name</title>
<path fill="none" stroke="#000000" d="M822.261,-287.7623C838.8215,-262.66 868.7454,-217.3017 887.7682,-188.4671"/>
<polygon fill="#000000" stroke="#000000" points="890.7097,-190.3642 893.295,-180.0896 884.8667,-186.5094 890.7097,-190.3642"/>
</g>
<!-- [root] data.aws_iam_policy_document.build_assume -->
<g id="node14" class="node">
<title>[root] data.aws_iam_policy_document.build_assume</title>
<polygon fill="none" stroke="#000000" points="305.0057,-180 27.4527,-180 27.4527,-144 305.0057,-144 305.0057,-180"/>
<text text-anchor="middle" x="166.2292" y="-157.8" font-family="Times,serif" font-size="14.00" fill="#000000">data.aws_iam_policy_document.build_assume</text>
</g>
<!-- [root] aws_iam_role.build_role&#45;&gt;[root] data.aws_iam_policy_document.build_assume -->
<g id="edge14" class="edge">
<title>[root] aws_iam_role.build_role&#45;&gt;[root] data.aws_iam_policy_document.build_assume</title>
<path fill="none" stroke="#000000" d="M245.4809,-215.8314C232.1739,-206.7927 215.9131,-195.7476 201.5917,-186.0198"/>
<polygon fill="#000000" stroke="#000000" points="203.2077,-182.8864 192.9689,-180.1628 199.2745,-188.677 203.2077,-182.8864"/>
</g>
<!-- [root] aws_iam_role.build_role&#45;&gt;[root] var.project&#45;name -->
<g id="edge15" class="edge">
<title>[root] aws_iam_role.build_role&#45;&gt;[root] var.project&#45;name</title>
<path fill="none" stroke="#000000" d="M349.9339,-217.4291C353.0682,-216.9174 356.1756,-216.438 359.2292,-216 555.2045,-187.8907 606.8625,-205.2308 803.2292,-180 811.717,-178.9094 820.574,-177.6023 829.3696,-176.1967"/>
<polygon fill="#000000" stroke="#000000" points="829.9502,-179.6484 839.251,-174.5744 828.8161,-172.7408 829.9502,-179.6484"/>
</g>
<!-- [root] data.aws_iam_policy_document.pipeline_assume -->
<g id="node16" class="node">
<title>[root] data.aws_iam_policy_document.pipeline_assume</title>
<polygon fill="none" stroke="#000000" points="1222.8232,-252 929.6351,-252 929.6351,-216 1222.8232,-216 1222.8232,-252"/>
<text text-anchor="middle" x="1076.2292" y="-229.8" font-family="Times,serif" font-size="14.00" fill="#000000">data.aws_iam_policy_document.pipeline_assume</text>
</g>
<!-- [root] aws_iam_role.pipeline_role&#45;&gt;[root] data.aws_iam_policy_document.pipeline_assume -->
<g id="edge16" class="edge">
<title>[root] aws_iam_role.pipeline_role&#45;&gt;[root] data.aws_iam_policy_document.pipeline_assume</title>
<path fill="none" stroke="#000000" d="M1068.0049,-287.8314C1069.1814,-280.131 1070.5803,-270.9743 1071.8877,-262.4166"/>
<polygon fill="#000000" stroke="#000000" points="1075.3655,-262.8272 1073.416,-252.4133 1068.4458,-261.7699 1075.3655,-262.8272"/>
</g>
<!-- [root] aws_iam_role.pipeline_role&#45;&gt;[root] var.project&#45;name -->
<g id="edge17" class="edge">
<title>[root] aws_iam_role.pipeline_role&#45;&gt;[root] var.project&#45;name</title>
<path fill="none" stroke="#000000" d="M979.2853,-290.3162C957.1057,-282.3153 935.2713,-270.2358 920.2292,-252 906.1113,-234.8847 902.9517,-209.5571 902.9854,-190.1267"/>
<polygon fill="#000000" stroke="#000000" points="906.4868,-190.1272 903.2833,-180.0283 899.4898,-189.9207 906.4868,-190.1272"/>
</g>
<!-- [root] aws_iam_role_policy_attachment.build_default -->
<g id="node9" class="node">
<title>[root] aws_iam_role_policy_attachment.build_default</title>
<polygon fill="none" stroke="#000000" points="655.8161,-396 372.6422,-396 372.6422,-360 655.8161,-360 655.8161,-396"/>
<text text-anchor="middle" x="514.2292" y="-373.8" font-family="Times,serif" font-size="14.00" fill="#000000">aws_iam_role_policy_attachment.build_default</text>
</g>
<!-- [root] aws_iam_role_policy_attachment.build_default&#45;&gt;[root] aws_iam_policy.build_default -->
<g id="edge18" class="edge">
<title>[root] aws_iam_role_policy_attachment.build_default&#45;&gt;[root] aws_iam_policy.build_default</title>
<path fill="none" stroke="#000000" d="M510.795,-359.9901C506.9581,-341.514 499.9792,-312.1407 490.2292,-288 486.5718,-278.9446 481.7205,-269.4987 476.9873,-261.086"/>
<polygon fill="#000000" stroke="#000000" points="480.0089,-259.3195 471.9598,-252.4301 473.9558,-262.8352 480.0089,-259.3195"/>
</g>
<!-- [root] aws_iam_role_policy_attachment.build_default&#45;&gt;[root] aws_iam_role.build_role -->
<g id="edge19" class="edge">
<title>[root] aws_iam_role_policy_attachment.build_default&#45;&gt;[root] aws_iam_role.build_role</title>
<path fill="none" stroke="#000000" d="M507.3001,-359.6641C498.6456,-339.213 481.9087,-306.5719 457.2292,-288 441.1756,-275.9193 399.4689,-263.2889 359.7116,-253.2834"/>
<polygon fill="#000000" stroke="#000000" points="360.4805,-249.8681 349.9325,-250.8637 358.7991,-256.6632 360.4805,-249.8681"/>
</g>
<!-- [root] aws_iam_role_policy_attachment.pipeline_codebuild -->
<g id="node10" class="node">
<title>[root] aws_iam_role_policy_attachment.pipeline_codebuild</title>
<polygon fill="none" stroke="#000000" points="1279.9715,-396 964.4869,-396 964.4869,-360 1279.9715,-360 1279.9715,-396"/>
<text text-anchor="middle" x="1122.2292" y="-373.8" font-family="Times,serif" font-size="14.00" fill="#000000">aws_iam_role_policy_attachment.pipeline_codebuild</text>
</g>
<!-- [root] aws_iam_role_policy_attachment.pipeline_codebuild&#45;&gt;[root] aws_iam_policy.pipeline_codebuild -->
<g id="edge20" class="edge">
<title>[root] aws_iam_role_policy_attachment.pipeline_codebuild&#45;&gt;[root] aws_iam_policy.pipeline_codebuild</title>
<path fill="none" stroke="#000000" d="M1151.1055,-359.7623C1192.2213,-333.7945 1267.6592,-286.1495 1312.9501,-257.5446"/>
<polygon fill="#000000" stroke="#000000" points="1315.0014,-260.3888 1321.5873,-252.0896 1311.2634,-254.4704 1315.0014,-260.3888"/>
</g>
<!-- [root] aws_iam_role_policy_attachment.pipeline_codebuild&#45;&gt;[root] aws_iam_role.pipeline_role -->
<g id="edge21" class="edge">
<title>[root] aws_iam_role_policy_attachment.pipeline_codebuild&#45;&gt;[root] aws_iam_role.pipeline_role</title>
<path fill="none" stroke="#000000" d="M1107.8457,-359.8314C1101.2806,-351.5386 1093.3785,-341.557 1086.1714,-332.4533"/>
<polygon fill="#000000" stroke="#000000" points="1088.7576,-330.0813 1079.8063,-324.4133 1083.2692,-334.4262 1088.7576,-330.0813"/>
</g>
<!-- [root] aws_iam_role_policy_attachment.pipeline_default -->
<g id="node11" class="node">
<title>[root] aws_iam_role_policy_attachment.pipeline_default</title>
<polygon fill="none" stroke="#000000" points="1598.1337,-396 1298.3246,-396 1298.3246,-360 1598.1337,-360 1598.1337,-396"/>
<text text-anchor="middle" x="1448.2292" y="-373.8" font-family="Times,serif" font-size="14.00" fill="#000000">aws_iam_role_policy_attachment.pipeline_default</text>
</g>
<!-- [root] aws_iam_role_policy_attachment.pipeline_default&#45;&gt;[root] aws_iam_policy.pipeline_default -->
<g id="edge22" class="edge">
<title>[root] aws_iam_role_policy_attachment.pipeline_default&#45;&gt;[root] aws_iam_policy.pipeline_default</title>
<path fill="none" stroke="#000000" d="M1464.5671,-359.7623C1487.2484,-334.4436 1528.39,-288.5182 1554.1838,-259.7251"/>
<polygon fill="#000000" stroke="#000000" points="1556.9583,-261.8734 1561.0239,-252.0896 1551.7444,-257.2026 1556.9583,-261.8734"/>
</g>
<!-- [root] aws_iam_role_policy_attachment.pipeline_default&#45;&gt;[root] aws_iam_role.pipeline_role -->
<g id="edge23" class="edge">
<title>[root] aws_iam_role_policy_attachment.pipeline_default&#45;&gt;[root] aws_iam_role.pipeline_role</title>
<path fill="none" stroke="#000000" d="M1352.0765,-359.9243C1293.7396,-348.9576 1219.5538,-335.0114 1161.2423,-324.0495"/>
<polygon fill="#000000" stroke="#000000" points="1161.7622,-320.586 1151.2876,-322.1781 1160.4688,-327.4655 1161.7622,-320.586"/>
</g>
<!-- [root] aws_iam_role_policy_attachment.pipeline_s3 -->
<g id="node12" class="node">
<title>[root] aws_iam_role_policy_attachment.pipeline_s3</title>
<polygon fill="none" stroke="#000000" points="946.7126,-396 673.7458,-396 673.7458,-360 946.7126,-360 946.7126,-396"/>
<text text-anchor="middle" x="810.2292" y="-373.8" font-family="Times,serif" font-size="14.00" fill="#000000">aws_iam_role_policy_attachment.pipeline_s3</text>
</g>
<!-- [root] aws_iam_role_policy_attachment.pipeline_s3&#45;&gt;[root] aws_iam_policy.pipeline_s3 -->
<g id="edge24" class="edge">
<title>[root] aws_iam_role_policy_attachment.pipeline_s3&#45;&gt;[root] aws_iam_policy.pipeline_s3</title>
<path fill="none" stroke="#000000" d="M810.2292,-359.8314C810.2292,-352.131 810.2292,-342.9743 810.2292,-334.4166"/>
<polygon fill="#000000" stroke="#000000" points="813.7293,-334.4132 810.2292,-324.4133 806.7293,-334.4133 813.7293,-334.4132"/>
</g>
<!-- [root] aws_iam_role_policy_attachment.pipeline_s3&#45;&gt;[root] aws_iam_role.pipeline_role -->
<g id="edge25" class="edge">
<title>[root] aws_iam_role_policy_attachment.pipeline_s3&#45;&gt;[root] aws_iam_role.pipeline_role</title>
<path fill="none" stroke="#000000" d="M874.2473,-359.9243C909.8651,-349.8675 954.3567,-337.3052 991.4341,-326.8363"/>
<polygon fill="#000000" stroke="#000000" points="992.512,-330.1688 1001.1847,-324.0831 990.6099,-323.4322 992.512,-330.1688"/>
</g>
<!-- [root] provider.aws -->
<g id="node20" class="node">
<title>[root] provider.aws</title>
<polygon fill="none" stroke="#000000" points="890.2292,-108 811.6208,-90 890.2292,-72 968.8375,-90 890.2292,-108"/>
<text text-anchor="middle" x="890.2292" y="-85.8" font-family="Times,serif" font-size="14.00" fill="#000000">provider.aws</text>
</g>
<!-- [root] aws_s3_bucket.artifact_store&#45;&gt;[root] provider.aws -->
<g id="edge26" class="edge">
<title>[root] aws_s3_bucket.artifact_store&#45;&gt;[root] provider.aws</title>
<path fill="none" stroke="#000000" d="M751.9125,-143.8314C782.6866,-131.8544 822.5124,-116.3546 851.521,-105.0648"/>
<polygon fill="#000000" stroke="#000000" points="852.8657,-108.2973 860.9154,-101.4086 850.3268,-101.7739 852.8657,-108.2973"/>
</g>
<!-- [root] data.aws_iam_policy_document.build_assume&#45;&gt;[root] provider.aws -->
<g id="edge27" class="edge">
<title>[root] data.aws_iam_policy_document.build_assume&#45;&gt;[root] provider.aws</title>
<path fill="none" stroke="#000000" d="M304.8677,-145.0211C308.0171,-144.6734 311.141,-144.3325 314.2292,-144 497.7947,-124.2364 714.7241,-105.0132 822.4585,-95.7443"/>
<polygon fill="#000000" stroke="#000000" points="822.8749,-99.2215 832.5387,-94.8787 822.2759,-92.2472 822.8749,-99.2215"/>
</g>
<!-- [root] data.aws_iam_policy_document.build_default&#45;&gt;[root] provider.aws -->
<g id="edge28" class="edge">
<title>[root] data.aws_iam_policy_document.build_default&#45;&gt;[root] provider.aws</title>
<path fill="none" stroke="#000000" d="M567.9041,-143.9707C652.7325,-129.7669 767.5403,-110.5433 834.7677,-99.2866"/>
<polygon fill="#000000" stroke="#000000" points="835.4497,-102.7212 844.7343,-97.6177 834.2936,-95.8173 835.4497,-102.7212"/>
</g>
<!-- [root] data.aws_iam_policy_document.pipeline_assume&#45;&gt;[root] provider.aws -->
<g id="edge29" class="edge">
<title>[root] data.aws_iam_policy_document.pipeline_assume&#45;&gt;[root] provider.aws</title>
<path fill="none" stroke="#000000" d="M1065.6659,-215.6831C1053.4698,-195.8566 1031.7746,-164.3517 1006.2292,-144 984.3375,-126.5592 955.8946,-113.2053 932.6526,-104.1402"/>
<polygon fill="#000000" stroke="#000000" points="933.6363,-100.7706 923.0444,-100.5183 931.1671,-107.3207 933.6363,-100.7706"/>
</g>
<!-- [root] data.aws_iam_policy_document.pipeline_codebuild&#45;&gt;[root] provider.aws -->
<g id="edge30" class="edge">
<title>[root] data.aws_iam_policy_document.pipeline_codebuild&#45;&gt;[root] provider.aws</title>
<path fill="none" stroke="#000000" d="M1156.8548,-143.9243C1089.1849,-130.2382 998.5716,-111.9119 942.3256,-100.5364"/>
<polygon fill="#000000" stroke="#000000" points="942.7318,-97.0477 932.2364,-98.4958 941.3441,-103.9088 942.7318,-97.0477"/>
</g>
<!-- [root] data.aws_iam_policy_document.pipeline_default&#45;&gt;[root] provider.aws -->
<g id="edge31" class="edge">
<title>[root] data.aws_iam_policy_document.pipeline_default&#45;&gt;[root] provider.aws</title>
<path fill="none" stroke="#000000" d="M1418.2021,-144.9928C1415.1849,-144.6574 1412.1912,-144.3261 1409.2292,-144 1245.9452,-126.0251 1053.58,-106.421 955.2569,-96.5143"/>
<polygon fill="#000000" stroke="#000000" points="955.4772,-93.0189 945.1769,-95.4995 954.776,-99.9837 955.4772,-93.0189"/>
</g>
<!-- [root] data.aws_iam_policy_document.pipeline_s3&#45;&gt;[root] aws_s3_bucket.artifact_store -->
<g id="edge32" class="edge">
<title>[root] data.aws_iam_policy_document.pipeline_s3&#45;&gt;[root] aws_s3_bucket.artifact_store</title>
<path fill="none" stroke="#000000" d="M703.7339,-215.8314C703.9478,-208.131 704.2021,-198.9743 704.4398,-190.4166"/>
<polygon fill="#000000" stroke="#000000" points="707.9386,-190.5066 704.7177,-180.4133 700.9413,-190.3122 707.9386,-190.5066"/>
</g>
<!-- [root] var.region -->
<g id="node25" class="node">
<title>[root] var.region</title>
<ellipse fill="none" stroke="#000000" cx="890.2292" cy="-18" rx="68.1287" ry="18"/>
<text text-anchor="middle" x="890.2292" y="-13.8" font-family="Times,serif" font-size="14.00" fill="#000000">[root] var.region</text>
</g>
<!-- [root] provider.aws&#45;&gt;[root] var.region -->
<g id="edge43" class="edge">
<title>[root] provider.aws&#45;&gt;[root] var.region</title>
<path fill="none" stroke="#000000" d="M890.2292,-71.8314C890.2292,-64.131 890.2292,-54.9743 890.2292,-46.4166"/>
<polygon fill="#000000" stroke="#000000" points="893.7293,-46.4132 890.2292,-36.4133 886.7293,-46.4133 893.7293,-46.4132"/>
</g>
<!-- [root] meta.count&#45;boundary (count boundary fixup) -->
<g id="node23" class="node">
<title>[root] meta.count&#45;boundary (count boundary fixup)</title>
<ellipse fill="none" stroke="#000000" cx="975.2292" cy="-450" rx="191.6931" ry="18"/>
<text text-anchor="middle" x="975.2292" y="-445.8" font-family="Times,serif" font-size="14.00" fill="#000000">[root] meta.count&#45;boundary (count boundary fixup)</text>
</g>
<!-- [root] meta.count&#45;boundary (count boundary fixup)&#45;&gt;[root] aws_codepipeline.default -->
<g id="edge33" class="edge">
<title>[root] meta.count&#45;boundary (count boundary fixup)&#45;&gt;[root] aws_codepipeline.default</title>
<path fill="none" stroke="#000000" d="M836.5606,-437.5464C815.6731,-435.6808 794.3833,-433.7851 774.2292,-432 594.878,-416.1146 546.4212,-422.1853 364.9369,-396.1661"/>
<polygon fill="#000000" stroke="#000000" points="365.181,-392.6651 354.7828,-394.697 364.1786,-399.5929 365.181,-392.6651"/>
</g>
<!-- [root] meta.count&#45;boundary (count boundary fixup)&#45;&gt;[root] aws_iam_role_policy_attachment.build_default -->
<g id="edge34" class="edge">
<title>[root] meta.count&#45;boundary (count boundary fixup)&#45;&gt;[root] aws_iam_role_policy_attachment.build_default</title>
<path fill="none" stroke="#000000" d="M876.3331,-434.5542C807.0839,-423.7387 714.0019,-409.201 639.5536,-397.5734"/>
<polygon fill="#000000" stroke="#000000" points="640.0627,-394.1106 629.6423,-396.0255 638.9824,-401.0268 640.0627,-394.1106"/>
</g>
<!-- [root] meta.count&#45;boundary (count boundary fixup)&#45;&gt;[root] aws_iam_role_policy_attachment.pipeline_codebuild -->
<g id="edge35" class="edge">
<title>[root] meta.count&#45;boundary (count boundary fixup)&#45;&gt;[root] aws_iam_role_policy_attachment.pipeline_codebuild</title>
<path fill="none" stroke="#000000" d="M1011.5663,-432.2022C1031.1185,-422.6256 1055.4321,-410.7169 1076.2853,-400.5031"/>
<polygon fill="#000000" stroke="#000000" points="1077.848,-403.6351 1085.289,-396.0931 1074.7689,-397.3486 1077.848,-403.6351"/>
</g>
<!-- [root] meta.count&#45;boundary (count boundary fixup)&#45;&gt;[root] aws_iam_role_policy_attachment.pipeline_default -->
<g id="edge36" class="edge">
<title>[root] meta.count&#45;boundary (count boundary fixup)&#45;&gt;[root] aws_iam_role_policy_attachment.pipeline_default</title>
<path fill="none" stroke="#000000" d="M1076.1194,-434.6425C1147.2662,-423.8125 1243.1435,-409.2181 1319.7569,-397.556"/>
<polygon fill="#000000" stroke="#000000" points="1320.5964,-400.9686 1329.9558,-396.0036 1319.5429,-394.0484 1320.5964,-400.9686"/>
</g>
<!-- [root] meta.count&#45;boundary (count boundary fixup)&#45;&gt;[root] aws_iam_role_policy_attachment.pipeline_s3 -->
<g id="edge37" class="edge">
<title>[root] meta.count&#45;boundary (count boundary fixup)&#45;&gt;[root] aws_iam_role_policy_attachment.pipeline_s3</title>
<path fill="none" stroke="#000000" d="M934.8656,-432.3868C912.5458,-422.6472 884.6013,-410.4533 860.8322,-400.0813"/>
<polygon fill="#000000" stroke="#000000" points="862.1755,-396.8488 851.6103,-396.0572 859.3758,-403.2646 862.1755,-396.8488"/>
</g>
<!-- [root] provider.aws (close) -->
<g id="node24" class="node">
<title>[root] provider.aws (close)</title>
<ellipse fill="none" stroke="#000000" cx="661.2292" cy="-450" rx="104.3276" ry="18"/>
<text text-anchor="middle" x="661.2292" y="-445.8" font-family="Times,serif" font-size="14.00" fill="#000000">[root] provider.aws (close)</text>
</g>
<!-- [root] provider.aws (close)&#45;&gt;[root] aws_codepipeline.default -->
<g id="edge38" class="edge">
<title>[root] provider.aws (close)&#45;&gt;[root] aws_codepipeline.default</title>
<path fill="none" stroke="#000000" d="M587.9697,-437.1984C529.9535,-426.9512 446.5865,-411.9849 364.8026,-396.2853"/>
<polygon fill="#000000" stroke="#000000" points="365.3199,-392.8207 354.8386,-394.3673 363.9967,-399.6945 365.3199,-392.8207"/>
</g>
<!-- [root] provider.aws (close)&#45;&gt;[root] aws_iam_role_policy_attachment.build_default -->
<g id="edge39" class="edge">
<title>[root] provider.aws (close)&#45;&gt;[root] aws_iam_role_policy_attachment.build_default</title>
<path fill="none" stroke="#000000" d="M626.3922,-432.937C606.6455,-423.2651 581.6939,-411.0439 560.3409,-400.5854"/>
<polygon fill="#000000" stroke="#000000" points="561.6465,-397.3276 551.1263,-396.0721 558.5674,-403.614 561.6465,-397.3276"/>
</g>
<!-- [root] provider.aws (close)&#45;&gt;[root] aws_iam_role_policy_attachment.pipeline_codebuild -->
<g id="edge40" class="edge">
<title>[root] provider.aws (close)&#45;&gt;[root] aws_iam_role_policy_attachment.pipeline_codebuild</title>
<path fill="none" stroke="#000000" d="M737.8109,-437.7585C749.9921,-435.8236 762.4546,-433.8513 774.2292,-432 847.4761,-420.4833 929.4224,-407.7595 995.3878,-397.557"/>
<polygon fill="#000000" stroke="#000000" points="996.0694,-400.9933 1005.417,-396.0062 994.9996,-394.0755 996.0694,-400.9933"/>
</g>
<!-- [root] provider.aws (close)&#45;&gt;[root] aws_iam_role_policy_attachment.pipeline_default -->
<g id="edge41" class="edge">
<title>[root] provider.aws (close)&#45;&gt;[root] aws_iam_role_policy_attachment.pipeline_default</title>
<path fill="none" stroke="#000000" d="M735.2573,-437.2504C748.2194,-435.292 761.5977,-433.4447 774.2292,-432 998.9625,-406.2968 1059.0445,-416.6064 1288.4551,-396.0433"/>
<polygon fill="#000000" stroke="#000000" points="1288.803,-399.5262 1298.4463,-395.138 1288.1712,-392.5548 1288.803,-399.5262"/>
</g>
<!-- [root] provider.aws (close)&#45;&gt;[root] aws_iam_role_policy_attachment.pipeline_s3 -->
<g id="edge42" class="edge">
<title>[root] provider.aws (close)&#45;&gt;[root] aws_iam_role_policy_attachment.pipeline_s3</title>
<path fill="none" stroke="#000000" d="M696.5401,-432.937C716.6452,-423.2218 742.0735,-410.9343 763.781,-400.4448"/>
<polygon fill="#000000" stroke="#000000" points="765.3489,-403.5744 772.83,-396.0721 762.3033,-397.2716 765.3489,-403.5744"/>
</g>
<!-- [root] root -->
<g id="node26" class="node">
<title>[root] root</title>
<ellipse fill="none" stroke="#000000" cx="818.2292" cy="-522" rx="46.8976" ry="18"/>
<text text-anchor="middle" x="818.2292" y="-517.8" font-family="Times,serif" font-size="14.00" fill="#000000">[root] root</text>
</g>
<!-- [root] root&#45;&gt;[root] meta.count&#45;boundary (count boundary fixup) -->
<g id="edge44" class="edge">
<title>[root] root&#45;&gt;[root] meta.count&#45;boundary (count boundary fixup)</title>
<path fill="none" stroke="#000000" d="M848.5003,-508.1177C870.8799,-497.8544 901.798,-483.6754 927.4925,-471.892"/>
<polygon fill="#000000" stroke="#000000" points="929.0663,-475.0208 936.697,-467.6708 926.1483,-468.658 929.0663,-475.0208"/>
</g>
<!-- [root] root&#45;&gt;[root] provider.aws (close) -->
<g id="edge45" class="edge">
<title>[root] root&#45;&gt;[root] provider.aws (close)</title>
<path fill="none" stroke="#000000" d="M787.958,-508.1177C765.1022,-497.6361 733.3408,-483.0703 707.333,-471.1432"/>
<polygon fill="#000000" stroke="#000000" points="708.5874,-467.868 698.0387,-466.8808 705.6694,-474.2308 708.5874,-467.868"/>
</g>
</g>
</svg>
